<svg width="594" height="577" viewBox="0 0 594 577" fill="none" xmlns="http://www.w3.org/2000/svg">
<path d="M0 30.75C0 13.7672 13.7672 0 30.75 0H438.5H544C571.614 0 594 22.3858 594 50V288.5V527C594 554.614 571.614 577 544 577H50C22.3858 577 0 554.614 0 527V330C0 312.051 14.5507 297.5 32.5 297.5H33.5C50.897 297.5 65 283.397 65 266V257.25C65 244.686 75.1855 234.5 87.75 234.5V234.5C100.314 234.5 110.5 224.314 110.5 211.75V162C110.5 145.155 96.8447 131.5 80 131.5V131.5C63.1553 131.5 49.5 117.845 49.5 101V86.25C49.5 72.581 38.419 61.5 24.75 61.5V61.5C11.081 61.5 0 50.419 0 36.75V30.75Z" fill="url(#paint0_linear_2_11)"/>
<defs>
<linearGradient id="paint0_linear_2_11" x1="594" y1="265" x2="1.69839e-05" y2="267" gradientUnits="userSpaceOnUse">
<stop stop-color="#D7DEDF"/>
<stop offset="0.929337" stop-color="#DFE3E4" stop-opacity="0.71"/>
</linearGradient>
</defs>
</svg>
