<svg width="471" height="96" viewBox="0 0 471 96" fill="none" xmlns="http://www.w3.org/2000/svg">
<path d="M41.768 42.488H13.064V73.496H0.776V4.27999H13.064V32.312H41.768V4.27999H54.056V73.496H41.768V42.488ZM76.6925 20.6L88.6925 59.672H89.0765L101.173 20.6H114.037L86.5805 95.48L75.2525 91.544L82.0685 74.168L63.2525 20.6H76.6925ZM140.494 74.36C134.926 74.36 130.478 72.728 127.15 69.464C123.822 66.136 122.158 61.24 122.158 54.776V20.6H134.254V52.184C134.254 54.488 134.51 56.408 135.022 57.944C135.534 59.416 136.238 60.6 137.134 61.496C138.03 62.328 139.086 62.936 140.302 63.32C141.518 63.64 142.83 63.8 144.238 63.8C145.454 63.8 146.702 63.608 147.982 63.224C149.326 62.84 150.542 62.168 151.63 61.208C152.718 60.248 153.614 58.968 154.318 57.368C155.086 55.768 155.47 53.784 155.47 51.416V20.6H167.566V73.496H156.046V67.16H155.854C155.086 68.44 154.126 69.528 152.974 70.424C151.822 71.32 150.542 72.056 149.134 72.632C147.79 73.208 146.35 73.624 144.814 73.88C143.342 74.2 141.902 74.36 140.494 74.36ZM208.573 42.488L229.981 73.496H214.525L200.125 51.032L194.077 57.752V73.496H181.981V0.919998H194.077V42.968L213.853 20.6H229.117L208.573 42.488ZM238.62 4.27999H264.732C268.892 4.27999 272.444 4.792 275.388 5.816C278.396 6.776 280.86 8.152 282.78 9.944C284.7 11.672 286.108 13.752 287.004 16.184C287.964 18.616 288.444 21.24 288.444 24.056V26.072C288.444 28.888 287.964 31.576 287.004 34.136C286.044 36.632 284.572 38.84 282.588 40.76C280.604 42.616 278.14 44.12 275.196 45.272C272.252 46.36 268.764 46.904 264.732 46.904H250.908V73.496H238.62V4.27999ZM250.908 14.552V36.536H263.1C267.132 36.536 270.3 35.768 272.604 34.232C274.908 32.696 276.06 29.912 276.06 25.88V24.152C276.06 22.232 275.772 20.664 275.196 19.448C274.62 18.232 273.788 17.272 272.7 16.568C271.676 15.8 270.428 15.288 268.956 15.032C267.484 14.712 265.884 14.552 264.156 14.552H250.908ZM299.075 0.919998H311.171V73.496H299.075V0.919998ZM340.87 74.264C335.174 74.264 330.758 72.984 327.622 70.424C324.486 67.8 322.918 64.152 322.918 59.48V56.408C322.918 54.232 323.238 52.248 323.878 50.456C324.582 48.6 325.702 47 327.238 45.656C328.838 44.312 330.918 43.256 333.478 42.488C336.038 41.72 339.174 41.336 342.886 41.336H354.982V39.32C354.982 36.056 354.214 33.72 352.678 32.312C351.206 30.84 348.838 30.104 345.574 30.104C340.07 30.104 335.078 31.864 330.598 35.384L324.646 26.552C327.334 24.696 330.374 23.064 333.766 21.656C337.158 20.184 341.126 19.448 345.67 19.448C348.742 19.448 351.59 19.832 354.214 20.6C356.838 21.368 359.078 22.488 360.934 23.96C362.854 25.368 364.326 27.128 365.35 29.24C366.438 31.288 366.982 33.656 366.982 36.344V73.496H356.134L355.942 66.968C355.43 68.12 354.598 69.176 353.446 70.136C352.358 71.032 351.11 71.768 349.702 72.344C348.294 72.984 346.822 73.464 345.286 73.784C343.75 74.104 342.278 74.264 340.87 74.264ZM354.982 50.744H343.174C339.974 50.744 337.734 51.352 336.454 52.568C335.238 53.784 334.63 55.416 334.63 57.464V58.616C334.63 60.344 335.238 61.688 336.454 62.648C337.67 63.608 339.462 64.088 341.83 64.088C346.758 64.088 350.406 62.904 352.774 60.536C353.862 59.448 354.502 58.296 354.694 57.08C354.886 55.8 354.982 54.168 354.982 52.184V50.744ZM407.902 19.448C410.27 19.448 412.542 19.8 414.718 20.504C416.958 21.208 418.942 22.36 420.67 23.96C422.398 25.496 423.774 27.512 424.798 30.008C425.822 32.504 426.333 35.512 426.333 39.032V73.496H414.238V41.624C414.238 33.88 410.878 30.008 404.158 30.008C403.198 30.008 402.046 30.168 400.702 30.488C399.422 30.744 398.174 31.32 396.958 32.216C395.806 33.048 394.814 34.264 393.982 35.864C393.15 37.464 392.734 39.576 392.734 42.2V73.496H380.638V20.6H392.062V26.648H392.254C394.11 23.96 396.382 22.104 399.07 21.08C401.822 19.992 404.766 19.448 407.902 19.448ZM443.623 30.584H435.175V20.6H443.623V7.064H455.719V20.6H469.063V30.584H455.719V58.424C455.719 60.664 456.167 62.136 457.062 62.84C458.023 63.544 459.303 63.896 460.903 63.896C462.119 63.896 463.303 63.8 464.455 63.608C465.671 63.352 466.983 62.936 468.391 62.36L470.311 72.056C469.223 72.568 467.719 73.048 465.799 73.496C463.943 74.008 461.831 74.264 459.463 74.264C456.455 74.264 453.927 73.912 451.879 73.208C449.831 72.504 448.199 71.48 446.983 70.136C445.767 68.792 444.903 67.16 444.391 65.24C443.879 63.256 443.623 61.016 443.623 58.52V30.584Z" fill="white"/>
</svg>
