<svg width="119" height="25" viewBox="0 0 119 25" fill="none" xmlns="http://www.w3.org/2000/svg">
<path d="M11.192 10.872H4.016V18.624H0.944V1.32H4.016V8.328H11.192V1.32H14.264V18.624H11.192V10.872ZM19.9231 5.4L22.9231 15.168H23.0191L26.0431 5.4H29.2591L22.3951 24.12L19.5631 23.136L21.2671 18.792L16.5631 5.4H19.9231ZM35.8734 18.84C34.4814 18.84 33.3694 18.432 32.5374 17.616C31.7054 16.784 31.2894 15.56 31.2894 13.944V5.4H34.3134V13.296C34.3134 13.872 34.3774 14.352 34.5054 14.736C34.6334 15.104 34.8094 15.4 35.0334 15.624C35.2574 15.832 35.5214 15.984 35.8254 16.08C36.1294 16.16 36.4574 16.2 36.8094 16.2C37.1134 16.2 37.4254 16.152 37.7454 16.056C38.0814 15.96 38.3854 15.792 38.6574 15.552C38.9294 15.312 39.1534 14.992 39.3294 14.592C39.5214 14.192 39.6174 13.696 39.6174 13.104V5.4H42.6414V18.624H39.7614V17.04H39.7134C39.5214 17.36 39.2814 17.632 38.9934 17.856C38.7054 18.08 38.3854 18.264 38.0334 18.408C37.6974 18.552 37.3374 18.656 36.9534 18.72C36.5854 18.8 36.2254 18.84 35.8734 18.84ZM52.8933 10.872L58.2453 18.624H54.3813L50.7813 13.008L49.2693 14.688V18.624H46.2453V0.48H49.2693V10.992L54.2133 5.4H58.0293L52.8933 10.872ZM60.4049 1.32H66.9329C67.9729 1.32 68.8609 1.448 69.5969 1.704C70.3489 1.944 70.9649 2.288 71.4449 2.736C71.9249 3.168 72.2769 3.688 72.5009 4.296C72.7409 4.904 72.8609 5.56 72.8609 6.264V6.768C72.8609 7.472 72.7409 8.144 72.5009 8.784C72.2609 9.408 71.8929 9.96 71.3969 10.44C70.9009 10.904 70.2849 11.28 69.5489 11.568C68.8129 11.84 67.9409 11.976 66.9329 11.976H63.4769V18.624H60.4049V1.32ZM63.4769 3.888V9.384H66.5249C67.5329 9.384 68.3249 9.192 68.9009 8.808C69.4769 8.424 69.7649 7.728 69.7649 6.72V6.288C69.7649 5.808 69.6929 5.416 69.5489 5.112C69.4049 4.808 69.1969 4.568 68.9249 4.392C68.6689 4.2 68.3569 4.072 67.9889 4.008C67.6209 3.928 67.2209 3.888 66.7889 3.888H63.4769ZM75.5188 0.48H78.5428V18.624H75.5188V0.48ZM85.9676 18.816C84.5436 18.816 83.4396 18.496 82.6556 17.856C81.8716 17.2 81.4796 16.288 81.4796 15.12V14.352C81.4796 13.808 81.5596 13.312 81.7196 12.864C81.8956 12.4 82.1756 12 82.5596 11.664C82.9596 11.328 83.4796 11.064 84.1196 10.872C84.7596 10.68 85.5436 10.584 86.4716 10.584H89.4956V10.08C89.4956 9.264 89.3036 8.68 88.9196 8.328C88.5516 7.96 87.9596 7.776 87.1436 7.776C85.7676 7.776 84.5196 8.216 83.3996 9.096L81.9116 6.888C82.5836 6.424 83.3436 6.016 84.1916 5.664C85.0396 5.296 86.0316 5.112 87.1676 5.112C87.9356 5.112 88.6476 5.208 89.3036 5.4C89.9596 5.592 90.5196 5.872 90.9836 6.24C91.4636 6.592 91.8316 7.032 92.0876 7.56C92.3596 8.072 92.4956 8.664 92.4956 9.336V18.624H89.7836L89.7356 16.992C89.6076 17.28 89.3996 17.544 89.1116 17.784C88.8396 18.008 88.5276 18.192 88.1756 18.336C87.8236 18.496 87.4556 18.616 87.0716 18.696C86.6876 18.776 86.3196 18.816 85.9676 18.816ZM89.4956 12.936H86.5436C85.7436 12.936 85.1836 13.088 84.8636 13.392C84.5596 13.696 84.4076 14.104 84.4076 14.616V14.904C84.4076 15.336 84.5596 15.672 84.8636 15.912C85.1676 16.152 85.6156 16.272 86.2076 16.272C87.4396 16.272 88.3516 15.976 88.9436 15.384C89.2156 15.112 89.3756 14.824 89.4236 14.52C89.4716 14.2 89.4956 13.792 89.4956 13.296V12.936ZM102.725 5.112C103.317 5.112 103.885 5.2 104.429 5.376C104.989 5.552 105.485 5.84 105.917 6.24C106.349 6.624 106.693 7.128 106.949 7.752C107.205 8.376 107.333 9.128 107.333 10.008V18.624H104.309V10.656C104.309 8.72 103.469 7.752 101.789 7.752C101.549 7.752 101.261 7.792 100.925 7.872C100.605 7.936 100.293 8.08 99.9894 8.304C99.7014 8.512 99.4534 8.816 99.2454 9.216C99.0374 9.616 98.9334 10.144 98.9334 10.8V18.624H95.9094V5.4H98.7654V6.912H98.8134C99.2774 6.24 99.8454 5.776 100.517 5.52C101.205 5.248 101.941 5.112 102.725 5.112ZM111.656 7.896H109.544V5.4H111.656V2.016H114.68V5.4H118.016V7.896H114.68V14.856C114.68 15.416 114.792 15.784 115.016 15.96C115.256 16.136 115.576 16.224 115.976 16.224C116.28 16.224 116.576 16.2 116.864 16.152C117.168 16.088 117.496 15.984 117.848 15.84L118.328 18.264C118.056 18.392 117.68 18.512 117.2 18.624C116.736 18.752 116.208 18.816 115.616 18.816C114.864 18.816 114.232 18.728 113.72 18.552C113.208 18.376 112.8 18.12 112.496 17.784C112.192 17.448 111.976 17.04 111.848 16.56C111.72 16.064 111.656 15.504 111.656 14.88V7.896Z" fill="black"/>
</svg>
