<svg width="545" height="92" viewBox="0 0 545 92" fill="none" xmlns="http://www.w3.org/2000/svg">
<path d="M25.704 56.552C12.36 56.552 4.584 49.736 4.584 41.288V38.216C4.584 29.768 12.36 22.952 25.704 22.952C39.048 22.952 46.824 29.768 46.824 38.216V41.288C46.824 49.736 39.048 56.552 25.704 56.552ZM61.896 57.416V50.312H50.952V40.04H61.896V33.32H50.952V23.048H61.896V1.544H73.896V57.416H61.896ZM14.76 71.624V61.448H73.896V91.976H61.8V71.624H14.76ZM31.656 0.391996V9.992H51.528V20.168H0.0720001V9.992H19.56V0.391996H31.656ZM25.704 32.456C19.368 32.456 16.008 35.816 16.008 38.792V40.712C16.008 43.688 19.368 47.048 25.704 47.048C32.04 47.048 35.4 43.688 35.4 40.712V38.792C35.4 35.816 32.04 32.456 25.704 32.456ZM97.911 54.536H157.527V77.384H110.103V82.472H160.119V91.592H98.391V68.648H145.815V63.656H97.911V54.536ZM87.159 39.848H168.951V49.16H87.159V39.848ZM97.047 3.65599H159.063V12.872H148.791V25.352H159.639V34.568H96.471V25.352H107.319V12.872H97.047V3.65599ZM119.127 12.872V25.352H136.983V12.872H119.127ZM245.382 1.544V25.448H257.094V36.008H245.382V65.576H233.286V1.544H245.382ZM201.99 62.984V79.592H247.494V89.96H189.798V62.984H201.99ZM189.99 35.72V45.416C203.43 45.416 214.47 45.224 226.182 44.072L227.238 54.152C216.198 55.4 202.566 55.592 178.086 55.592V25.928H206.79V16.232H178.086V6.056H218.694V35.72H189.99ZM261.909 69.32H343.701V79.592H261.909V69.32ZM333.237 46.952V57.128H272.469V8.168H332.277V18.344H284.469V27.56H331.509V37.736H284.469V46.952H333.237ZM376.932 24.2V13.832H395.748V2.024H408.036V13.832H425.988V24.2H408.036V31.592C408.036 39.08 409.86 43.496 415.044 49.064C418.5 52.808 424.068 58.28 428.868 62.6L421.092 70.664C417.06 66.824 412.74 62.6 409.188 58.952C405.348 55.016 402.66 52.04 402.084 50.504H401.892C401.028 52.328 397.764 56.072 394.596 59.336C391.044 63.08 387.396 66.728 382.116 71.624L374.148 63.464C379.332 58.856 384.228 54.056 388.356 49.544C394.02 43.208 395.748 39.272 395.748 31.592V24.2H376.932ZM448.452 1.544V90.824H436.26V1.544H448.452ZM532.563 1.544V33.512H544.947V44.072H532.563V90.824H520.563V1.544H532.563ZM460.947 71.528V61.064H476.019V35.528H488.019V60.872C500.595 60.68 509.139 60.2 516.147 59.432L517.011 69.8C506.451 71.144 490.131 71.528 460.947 71.528ZM465.171 9.8H510.387V23.72C510.387 31.688 509.907 42.152 508.275 50.696L496.371 49.256C498.003 40.616 498.483 32.072 498.483 25.448V20.264H465.171V9.8Z" fill="white"/>
</svg>
