<svg width="336" height="374" viewBox="0 0 336 374" fill="none" xmlns="http://www.w3.org/2000/svg">
<path d="M119.613 6.11183C145.988 -1.79799 174.074 -2.01186 200.567 5.49538V5.49538C229.59 13.7198 255.314 30.816 274.136 54.3898L293.5 78.6416L307.305 97.5217C320.591 115.693 329.534 136.669 333.446 158.837V158.837C336.783 177.745 336.389 197.124 332.287 215.881L313.497 301.795C307.486 329.283 289.07 352.431 263.637 364.469V364.469C251.493 370.217 238.225 373.198 224.79 373.198H136.299C110.359 373.198 85.0112 365.447 63.5082 350.938V350.938C32.9705 330.334 12.5955 297.753 7.43719 261.278L2.28018 224.811C-1.21278 200.111 -0.339323 174.99 4.86071 150.593L13.8286 108.518C20.084 79.1688 36.2739 52.8769 59.6656 34.08V34.08C72.7649 23.5537 87.776 15.6597 103.872 10.8324L119.613 6.11183Z" fill="url(#paint0_linear_17_2)"/>
<defs>
<linearGradient id="paint0_linear_17_2" x1="157.5" y1="-28.8584" x2="157.5" y2="459.142" gradientUnits="userSpaceOnUse">
<stop stop-color="#2463EB"/>
<stop offset="1" stop-color="#00F0FF"/>
</linearGradient>
</defs>
</svg>
